PathFileType	4	(X/Y/Z)	/Users/itak/Documents/Research/Walk-IL/dataset/trc/00066_00006.trc
DataRate	CameraRate	NumFrames	NumMarkers	Units	OrigDataRate	OrigDataStartFrame	OrigNumFrames
100.000000	100.000000	4	53	mm	100.000000	461	739
Frame#	Time	RPSI			LPSI			L3			STRN			T10			C7			CLAV			RBAK			LBAK			LSHO			LUPA			LAEL			LAOL			LWTS			LWPS			LFRA			LIFD			LHPS			LHTS			RSHO			RUPA			RAEL			RAOL			RWTS			RWPS			RFRA			RIFD			RHTS			RHPS			RBHD			LFHD			RFHD			LBHD			LHIP			RHIP			RASI			LASI			LKNE			LTHI			LANK			LTIP			LTOE			LMT1			LMT5			LHEE			RKNE			RTHI			RANK			RTIP			RTOE			RMT1			RMT5			RHEE			
		X1	Y1	Z1	X2	Y2	Z2	X3	Y3	Z3	X4	Y4	Z4	X5	Y5	Z5	X6	Y6	Z6	X7	Y7	Z7	X8	Y8	Z8	X9	Y9	Z9	X10	Y10	Z10	X11	Y11	Z11	X12	Y12	Z12	X13	Y13	Z13	X14	Y14	Z14	X15	Y15	Z15	X16	Y16	Z16	X17	Y17	Z17	X18	Y18	Z18	X19	Y19	Z19	X20	Y20	Z20	X21	Y21	Z21	X22	Y22	Z22	X23	Y23	Z23	X24	Y24	Z24	X25	Y25	Z25	X26	Y26	Z26	X27	Y27	Z27	X28	Y28	Z28	X29	Y29	Z29	X30	Y30	Z30	X31	Y31	Z31	X32	Y32	Z32	X33	Y33	Z33	X34	Y34	Z34	X35	Y35	Z35	X36	Y36	Z36	X37	Y37	Z37	X38	Y38	Z38	X39	Y39	Z39	X40	Y40	Z40	X41	Y41	Z41	X42	Y42	Z42	X43	Y43	Z43	X44	Y44	Z44	X45	Y45	Z45	X46	Y46	Z46	X47	Y47	Z47	X48	Y48	Z48	X49	Y49	Z49	X50	Y50	Z50	X51	Y51	Z51	X52	Y52	Z52	X53	Y53	Z53	

462	4.61	-382.8132019042969	1017.8037109375	-438.1928100585938	-265.2165222167969	1003.450927734375	-310.0284729003906	-322.8806457519531	1069.343139648438	-363.7897644042969	-547.0602416992188	1256.334228515625	-233.6715240478516	-307.9305725097656	1201.432861328125	-366.8523864746094	-375.8135681152344	1465.63818359375	-344.5381164550781	-526.3548583984375	1371.44580078125	-253.2713317871094	-351.1389770507812	1325.386962890625	-433.1663818359375	-302.7140502929688	1437.00146484375	-267.3126220703125	-358.6829528808594	1440.855102539062	-154.8095397949219	-300.6370849609375	1322.865112304688	-87.88413238525391	-300.5195617675781	1112.25244140625	-39.48002624511719	-285.0584716796875	1087.185424804688	-141.2493133544922	-430.4196472167969	882.462646484375	-31.6652946472168	-351.0093078613281	866.992431640625	-6.147318840026855	-322.2181396484375	1005.864868164062	-11.81026172637939	-466.4178466796875	699.6465454101562	-25.60882186889648	-388.23486328125	790.9513549804688	13.46592617034912	-454.7446899414062	803.3861083984375	-10.76091957092285	-514.4886474609375	1419.386352539062	-461.6710205078125	-527.4339599609375	1355.840576171875	-524.0897216796875	-487.9993591308594	1115.726806640625	-611.9766845703125	-461.6423034667969	1077.957153320312	-523.8499145507812	-570.6589965820312	839.0742797851562	-558.6905517578125	-528.713623046875	844.056884765625	-634.765869140625	-495.6241149902344	1034.549194335938	-628.9223022460938	-519.9624633789062	654.1151123046875	-574.1555786132812	-567.0546875	730.7714233398438	-568.4721069335938	-541.1038818359375	749.6185913085938	-638.3138427734375	-395.8663635253906	1639.940185546875	-338.759521484375	-575.4027099609375	1670.0576171875	-222.4912719726562	-459.1525573730469	1668.827758789062	-174.2012939453125	-526.2319946289062	1632.592407226562	-382.9435119628906	-285.1877746582031	932.6838989257812	-176.6220092773438	-485.3617248535156	949.9049072265625	-455.655517578125	-569.604736328125	965.8475341796875	-363.3628234863281	-407.3588256835938	943.7413330078125	-150.8784637451172	-408.0604248046875	453.6035461425781	-213.6946411132812	-354.9170532226562	599.1506958007812	-191.2885437011719	-106.6564559936523	153.9595794677734	-469.0760498046875	-238.5287017822266	295.618896484375	-337.1883850097656	-266.2093200683594	36.28026580810547	-478.4359741210938	-243.5453643798828	83.3126220703125	-519.3265991210938	-165.9066314697266	63.41535186767578	-443.7985229492188	-102.8896255493164	222.6155853271484	-530.5945434570312	-627.7200317382812	530.5093994140625	-318.4412536621094	-591.7442016601562	791.699951171875	-381.0724182128906	-641.8712768554688	36.75371932983398	-362.8275451660156	-645.188720703125	403.4506530761719	-325.4169311523438	-737.9837036132812	48.86159133911133	-167.5406188964844	-670.9852905273438	53.33098602294922	-191.9884490966797	-726.7905883789062	44.00594711303711	-272.9867858886719	-569.048828125	40.6511116027832	-366.9664306640625	
463	4.62	-391.0294494628906	1019.422058105469	-433.9501342773438	-271.7044677734375	1004.01220703125	-307.3434143066406	-330.6145629882812	1071.010498046875	-360.61865234375	-553.11865234375	1257.291137695312	-226.4874572753906	-316.3324279785156	1203.289306640625	-364.027587890625	-384.4835205078125	1467.220581054688	-340.0923767089844	-533.1651611328125	1372.525390625	-246.2225189208984	-361.0082702636719	1327.22705078125	-429.50390625	-309.9257202148438	1438.584228515625	-264.2073364257812	-363.8872985839844	1442.147094726562	-150.6809234619141	-304.4326782226562	1324.221557617188	-84.99767303466797	-302.7255859375	1113.573852539062	-36.67208862304688	-288.5155029296875	1088.744262695312	-138.680419921875	-429.7548828125	881.978515625	-27.35424041748047	-349.8307495117188	867.8478393554688	-2.377018451690674	-323.0292663574219	1006.939758300781	-8.713588714599609	-462.2187194824219	698.2814331054688	-21.49386024475098	-385.5557250976562	791.2725219726562	17.6853199005127	-452.4500122070312	802.255126953125	-6.438951015472412	-525.1812744140625	1420.765502929688	-454.7625427246094	-539.2067260742188	1357.269897460938	-517.0535278320312	-501.4119567871094	1116.9248046875	-605.8564453125	-473.0860595703125	1079.380859375	-518.39208984375	-583.2195434570312	840.4710083007812	-550.4102783203125	-542.532958984375	845.114013671875	-627.2300415039062	-509.3144226074219	1035.705078125	-622.483154296875	-533.053955078125	655.3922729492188	-565.8965454101562	-580.0997314453125	732.215087890625	-559.8523559570312	-555.0755615234375	750.649169921875	-630.1829833984375	-404.381591796875	1641.258056640625	-333.7575378417969	-582.440673828125	1671.294799804688	-215.064453125	-465.5084838867188	1670.20947265625	-168.3562927246094	-535.3890380859375	1633.806274414062	-376.1709594726562	-290.6429748535156	933.7404174804688	-173.4486236572266	-493.42236328125	951.1234741210938	-450.4475402832031	-576.8151245117188	966.8519287109375	-357.3272705078125	-412.4352722167969	945.1353759765625	-146.3085784912109	-421.0190734863281	455.3456420898438	-197.0799713134766	-364.9350891113281	600.91748046875	-179.5647735595703	-119.101676940918	165.281005859375	-462.805419921875	-251.3199768066406	301.640380859375	-326.5171508789062	-273.2935180664062	38.44715118408203	-462.8106079101562	-254.9443511962891	87.82630157470703	-505.4404907226562	-172.9066772460938	72.50968170166016	-433.787109375	-120.4700012207031	232.8167877197266	-525.16015625	-631.5902709960938	530.181396484375	-316.4118347167969	-597.7615966796875	791.8598022460938	-377.3001708984375	-641.8884887695312	36.76607131958008	-362.6855163574219	-648.1975708007812	403.1979675292969	-324.2216491699219	-738.7101440429688	47.57071304321289	-167.4286346435547	-671.4640502929688	52.93132781982422	-191.7504272460938	-727.1773681640625	43.42120361328125	-272.8744201660156	-569.0975952148438	40.796875	-366.8257751464844	
464	4.63	-398.931396484375	1020.963317871094	-429.6259155273438	-278.0613708496094	1004.644409179688	-304.4747009277344	-338.1567993164062	1072.630249023438	-357.3581848144531	-558.9048461914062	1258.272705078125	-219.3017425537109	-324.5815124511719	1205.17431640625	-361.2306213378906	-392.9392700195312	1468.809326171875	-335.6089172363281	-539.6781616210938	1373.6240234375	-239.1266174316406	-370.7311096191406	1329.087890625	-425.8272705078125	-316.9365844726562	1440.13623046875	-261.1352233886719	-368.7598266601562	1443.38720703125	-146.5761108398438	-307.7908325195312	1325.510498046875	-82.27371215820312	-304.3933410644531	1114.8359375	-34.00664138793945	-291.6171264648438	1090.23193359375	-136.27587890625	-428.756591796875	881.6956787109375	-23.22169494628906	-348.4103393554688	868.705810546875	1.126695156097412	-323.3607482910156	1007.989501953125	-5.843620300292969	-458.3523254394531	697.3630981445312	-17.62137603759766	-382.8800964355469	791.6730346679688	21.59457206726074	-450.0777282714844	801.4843139648438	-2.306189298629761	-535.6724853515625	1422.166015625	-447.7449035644531	-550.826416015625	1358.703491210938	-509.868896484375	-514.8212280273438	1118.08935546875	-599.5248413085938	-484.4987182617188	1080.734497070312	-512.7517700195312	-595.7119750976562	841.8478393554688	-541.9109497070312	-556.3892211914062	846.163818359375	-619.4791259765625	-523.0443725585938	1036.840942382812	-615.822265625	-546.1206665039062	656.6544189453125	-557.4984741210938	-593.1353759765625	733.6360473632812	-551.0400390625	-569.0758056640625	751.683837890625	-621.8554077148438	-412.7000122070312	1642.603759765625	-328.6457214355469	-589.2216796875	1672.515258789062	-207.5126800537109	-471.6525573730469	1671.577026367188	-162.4193878173828	-544.3260498046875	1635.056640625	-369.2758483886719	-296.0712280273438	934.927978515625	-170.0818939208984	-501.1580505371094	952.2950439453125	-445.3151550292969	-583.8343505859375	967.8594970703125	-351.4923400878906	-417.5885009765625	946.543212890625	-141.8318939208984	-433.6331787109375	457.7044982910156	-180.3085174560547	-374.5953979492188	603.1071166992188	-167.6822509765625	-132.7171936035156	176.2093200683594	-455.9490051269531	-264.5169372558594	307.5914306640625	-315.5662231445312	-281.188232421875	41.48189544677734	-445.6559448242188	-267.1692199707031	91.96369934082031	-490.2678527832031	-181.1665496826172	82.14523315429688	-422.4531860351562	-139.0285339355469	241.8949432373047	-519.5204467773438	-635.36865234375	529.92041015625	-314.4599609375	-603.5497436523438	792.0791015625	-373.5499572753906	-641.9132080078125	36.73972702026367	-362.6086120605469	-651.0808715820312	402.9898071289062	-323.0635681152344	-739.243896484375	46.64967346191406	-167.4169158935547	-671.822021484375	52.69917678833008	-191.6183624267578	-727.4692993164062	42.97764587402344	-272.8328857421875	-569.1531982421875	40.92584228515625	-366.7416381835938	
465	4.64	-406.5396118164062	1022.441345214844	-425.2099304199219	-284.3106994628906	1005.424560546875	-301.3970642089844	-345.5	1074.222534179688	-353.9692077636719	-564.46826171875	1259.30908203125	-212.1427917480469	-332.6874084472656	1207.091796875	-358.4105529785156	-401.1836242675781	1470.409301757812	-331.0813598632812	-545.9213256835938	1374.76953125	-232.0204925537109	-380.2998352050781	1330.96533203125	-422.094482421875	-323.7743530273438	1441.687622070312	-258.0740051269531	-373.36328125	1444.614990234375	-142.5000305175781	-310.7942199707031	1326.788940429688	-79.69049835205078	-305.5839538574219	1116.09375	-31.52501106262207	-294.4314270019531	1091.719604492188	-134.0783843994141	-427.4190063476562	881.630615234375	-19.23862457275391	-346.7163696289062	869.5850830078125	4.302913665771484	-323.2152709960938	1009.057495117188	-3.253487110137939	-454.7938842773438	696.8886108398438	-13.85523223876953	-380.1351318359375	792.1355590820312	25.14077568054199	-447.613037109375	801.0875244140625	1.708572149276733	-545.9307861328125	1423.60791015625	-440.6439514160156	-562.24853515625	1360.154052734375	-502.5547485351562	-528.1787719726562	1119.238403320312	-592.9432373046875	-495.8787231445312	1082.037109375	-506.8765563964844	-608.1270141601562	843.2200927734375	-533.1897583007812	-570.2772216796875	847.2401733398438	-611.5015258789062	-536.7696533203125	1037.974487304688	-608.9046630859375	-559.1395874023438	657.9121704101562	-549.0228271484375	-606.1199951171875	735.0399780273438	-542.057861328125	-583.1056518554688	752.7591552734375	-613.3515625	-420.8182983398438	1643.985107421875	-323.4231262207031	-595.7356567382812	1673.722778320312	-199.840576171875	-477.5775146484375	1672.920654296875	-156.3931274414062	-553.0425415039062	1636.35546875	-362.2627563476562	-301.4671630859375	936.3052978515625	-166.5085296630859	-508.5978393554688	953.4459228515625	-440.23046875	-590.6907958984375	968.8843994140625	-345.821533203125	-422.82958984375	948.011962890625	-137.4397125244141	-445.8109436035156	460.6766967773438	-163.4561920166016	-383.9101257324219	605.7147216796875	-155.6574401855469	-147.4306335449219	186.4027099609375	-448.44140625	-277.9884033203125	313.3591003417969	-304.3162231445312	-290.0043334960938	45.22552490234375	-427.4404602050781	-280.1435546875	95.71886444091797	-474.1694641113281	-190.7689971923828	91.89188385009766	-410.0592346191406	-158.3627777099609	249.7050170898438	-513.473876953125	-639.0598754882812	529.7232055664062	-312.498291015625	-609.1654052734375	792.3875732421875	-369.7359619140625	-641.9503173828125	36.68205261230469	-362.5863647460938	-653.8355712890625	402.8189086914062	-321.8428344726562	-739.6170043945312	46.02847671508789	-167.4747161865234	-672.0852661132812	52.59970855712891	-191.5759124755859	-727.6881103515625	42.65847015380859	-272.8484191894531	-569.21630859375	41.04768371582031	-366.7041015625	
